# xmcd
# 
# Track frame offsets:
#     150
#     19005
#     35972
#     50253
#     66429
#     80592
#     98293
#     115531
#     132464
#     148467
#     164718
#     179660
#     192594
#     209327
#     225593
#     245231
# 
# Disc length: 3487
# 
# Revision: 2
# Processed by: cddbd v1.5.2PL0 Copyright (c) Steve Scherf et al.
# Submitted via: fre:ac v1.0.17
# 
DISCID=f50d9d10
DTITLE=Various Artist - The Voice Hits Vol. 1 - CD 1 - 2
DYEAR=2014
DGENRE=Dance
TTITLE0=Haloo Helsinki! - Beibi
TTITLE1=Avicii - The Days
TTITLE2=Lilly Wood and The Prick - Prayer In C (Robin Schulz Remix)
TTITLE3=Ariana Grande Featuring Zedd - Break Free
TTITLE4=Meghan Trainor - All About That Bass
TTITLE5=Pitbull Featuring John Ryan - Fireball
TTITLE6=Maroon 5 - Animals
TTITLE7=Magic! - Rude
TTITLE8=Robin Featuring Nikke Ankara - Parasta Just Nyt
TTITLE9=Ed Sheeran - Don't
TTITLE10=Jessie J, Ariana Grande And Nicki Minaj - Bang Bang
TTITLE11=Benjamin - Underdogs
TTITLE12=Isac Elliot - Tired Of Missing You
TTITLE13=Echosmith - Cool Kids
TTITLE14=Nicki Minaj - Anaconda
TTITLE15=Ella Henderson - Ghost
EXTD=
EXTT0=
EXTT1=
EXTT2=
EXTT3=
EXTT4=
EXTT5=
EXTT6=
EXTT7=
EXTT8=
EXTT9=
EXTT10=
EXTT11=
EXTT12=
EXTT13=
EXTT14=
EXTT15=
PLAYORDER=
